<?xml version="1.0" encoding="iso-8859-1"?>
<!-- Uploaded to: SVG Repo, www.svgrepo.com, Generator: SVG Repo Mixer Tools -->
<svg fill="#000000" height="800px" width="800px" version="1.1" id="Layer_1" xmlns="http://www.w3.org/2000/svg" xmlns:xlink="http://www.w3.org/1999/xlink" 
	 viewBox="0 0 511.573 511.573" xml:space="preserve">
<g transform="translate(1 1)">
	<g>
		<g>
			<path d="M504.813,314.093c-4.267-5.973-11.947-9.387-19.627-9.387h-59.733H409.24h-86.187H306.84h-86.187H24.387
				c-7.68,0-15.36,3.413-19.627,9.387c-5.12,5.973-6.827,13.653-5.12,21.333l2.252,12.013c0.034,0.542,0.124,1.09,0.308,1.64
				l24.747,112.64c2.56,8.533,9.387,13.653,17.067,13.653h157.013H465.56c7.68,0,14.507-5.12,16.213-13.653l28.16-126.293
				C511.64,327.747,509.933,320.067,504.813,314.093z M425.453,321.773c2.56,0,5.12,1.707,6.827,3.413s2.56,4.267,1.707,6.827
				l-10.24,51.2c-0.853,4.267-4.267,6.827-8.533,6.827H399c-2.56,0-5.12-1.707-6.827-3.413s-2.56-4.267-1.707-6.827l10.24-51.2
				c0.853-4.267,4.267-6.827,8.533-6.827H425.453z M323.053,321.773c2.56,0,5.12,1.707,6.827,3.413s2.56,4.267,1.707,6.827
				l-10.24,51.2c-0.853,4.267-4.267,6.827-8.533,6.827H296.6c-2.56,0-5.12-1.707-6.827-3.413c-1.707-1.707-2.56-4.267-1.707-6.827
				l10.24-51.2c0.853-4.267,4.267-6.827,8.533-6.827H323.053z M17.56,325.187c1.707-2.56,4.267-3.413,6.827-3.413h196.267
				c2.482,0,4.558,1.007,6.043,2.429c0.275,0.298,0.54,0.619,0.783,0.984c0.181,0.181,0.347,0.376,0.508,0.576
				c0.77,1.188,1.199,2.491,1.199,3.691v1.707v0.853l-1.707,6.827H17.56l-1.707-6.827C15.853,329.453,15.853,326.893,17.56,325.187z
				 M38.315,432.982l5.698,5.698c1.707,1.707,3.413,2.56,5.973,2.56s4.267-0.853,5.973-2.56c3.413-3.413,3.413-8.533,0-11.947
				l-8.533-8.533c-3.413-3.413-8.533-3.413-11.947,0c-0.14,0.14-0.265,0.287-0.393,0.432l-6.742-29.964
				c1.292,0.911,2.705,1.371,4.575,1.371c2.56,0,4.267-0.853,5.973-2.56c3.413-3.413,3.413-8.533,0-11.947L30.36,367
				c-2.098-2.098-4.84-2.901-7.435-2.42l-1.952-8.673h202.886l-15.52,69.606l-7.312-7.312c-3.413-3.413-8.533-3.413-11.947,0
				c-3.413,3.413-3.413,8.533,0,11.947l8.533,8.533c1.707,1.707,3.413,2.56,5.973,2.56c0.449,0,0.864-0.036,1.265-0.088
				l-3.825,17.155H44.013L38.315,432.982z M493.72,332.013l-28.16,126.293H218.947l7.695-35.495l15.723-71.567
				c0.2-0.42,0.362-0.858,0.476-1.312l2.56-13.653c0.853-0.853,0.853-2.56,0.853-4.267v-2.56c0-0.853,0-0.853,0-0.853
				c-0.15-2.394-0.62-4.68-1.358-6.827h38.192c-0.395,1.105-0.742,2.237-0.994,3.413l-10.24,51.2c-1.707,7.68,0,15.36,5.12,21.333
				s11.947,9.387,19.627,9.387h16.213c11.947,0,23.04-8.533,24.747-20.48l10.24-51.2c1.04-4.681,0.805-9.359-0.691-13.653h38.378
				c-0.395,1.105-0.742,2.237-0.994,3.413l-10.24,51.2c-1.707,7.68,0,15.36,5.12,21.333s11.947,9.387,19.627,9.387h16.213
				c11.947,0,23.04-8.533,24.747-20.48l10.24-51.2c1.04-4.681,0.805-9.359-0.691-13.653h35.677c2.56,0,5.12,0.853,6.827,3.413
				C493.72,326.893,494.573,329.453,493.72,332.013z"/>
			<path d="M90.093,387.48c3.413-3.413,3.413-8.533,0-11.947L81.56,367c-3.413-3.413-8.533-3.413-11.947,0
				c-3.413,3.413-3.413,8.533,0,11.947l8.533,8.533c1.707,1.707,3.413,2.56,5.973,2.56S88.387,389.187,90.093,387.48z"/>
			<path d="M64.493,392.6c-3.413-3.413-8.533-3.413-11.947,0s-3.413,8.533,0,11.947l8.533,8.533c1.707,1.707,3.413,2.56,5.973,2.56
				s4.267-0.853,5.973-2.56c3.413-3.413,3.413-8.533,0-11.947L64.493,392.6z"/>
			<path d="M115.693,392.6c-3.413-3.413-8.533-3.413-11.947,0s-3.413,8.533,0,11.947l8.533,8.533c1.707,1.707,3.413,2.56,5.973,2.56
				s4.267-0.853,5.973-2.56c3.413-3.413,3.413-8.533,0-11.947L115.693,392.6z"/>
			<path d="M141.293,387.48c3.413-3.413,3.413-8.533,0-11.947L132.76,367c-3.413-3.413-8.533-3.413-11.947,0
				c-3.413,3.413-3.413,8.533,0,11.947l8.533,8.533c1.707,1.707,3.413,2.56,5.973,2.56S139.587,389.187,141.293,387.48z"/>
			<path d="M192.493,387.48c3.413-3.413,3.413-8.533,0-11.947L183.96,367c-3.413-3.413-8.533-3.413-11.947,0
				c-3.413,3.413-3.413,8.533,0,11.947l8.533,8.533c1.707,1.707,3.413,2.56,5.973,2.56S190.787,389.187,192.493,387.48z"/>
			<path d="M166.893,392.6c-3.413-3.413-8.533-3.413-11.947,0s-3.413,8.533,0,11.947l8.533,8.533c1.707,1.707,3.413,2.56,5.973,2.56
				s4.267-0.853,5.973-2.56c3.413-3.413,3.413-8.533,0-11.947L166.893,392.6z"/>
			<path d="M98.627,418.2c-3.413-3.413-8.533-3.413-11.947,0c-3.413,3.413-3.413,8.533,0,11.947l8.533,8.533
				c1.707,1.707,3.413,2.56,5.973,2.56s4.267-0.853,5.973-2.56c3.413-3.413,3.413-8.533,0-11.947L98.627,418.2z"/>
			<path d="M149.827,418.2c-3.413-3.413-8.533-3.413-11.947,0c-3.413,3.413-3.413,8.533,0,11.947l8.533,8.533
				c1.707,1.707,3.413,2.56,5.973,2.56c2.56,0,4.267-0.853,5.973-2.56c3.413-3.413,3.413-8.533,0-11.947L149.827,418.2z"/>
			<path d="M448.493,97.347l25.6-25.6V59.8l-25.6-25.6h-11.947l-25.6,25.6v11.947l25.6,25.6H448.493z M442.52,52.12l13.653,13.653
				L442.52,79.427l-13.653-13.653L442.52,52.12z"/>
			<path d="M203.587,91.373c14.507,0,25.6,11.093,25.6,25.6c0,5.12,3.413,8.533,8.533,8.533s8.533-3.413,8.533-8.533
				c0-14.507,11.093-25.6,25.6-25.6c5.12,0,8.533-3.413,8.533-8.533s-3.413-8.533-8.533-8.533c-14.507,0-25.6-11.093-25.6-25.6
				c0-5.12-3.413-8.533-8.533-8.533s-8.533,3.413-8.533,8.533c0,14.507-11.093,25.6-25.6,25.6c-5.12,0-8.533,3.413-8.533,8.533
				S198.467,91.373,203.587,91.373z M237.72,74.307c2.56,3.413,5.12,5.973,8.533,8.533c-3.413,2.56-5.973,5.12-8.533,8.533
				c-2.56-3.413-5.12-5.973-8.533-8.533C232.6,80.28,235.16,77.72,237.72,74.307z"/>
			<path d="M314.52,210.84h8.533v8.533c0,5.12,3.413,8.533,8.533,8.533c5.12,0,8.533-3.413,8.533-8.533v-8.533h8.533
				c5.12,0,8.533-3.413,8.533-8.533s-3.413-8.533-8.533-8.533h-8.533v-8.533c0-5.12-3.413-8.533-8.533-8.533
				c-5.12,0-8.533,3.413-8.533,8.533v8.533h-8.533c-5.12,0-8.533,3.413-8.533,8.533S309.4,210.84,314.52,210.84z"/>
			<path d="M135.32,202.307c5.12,0,8.533-3.413,8.533-8.533s-3.413-8.533-8.533-8.533s-8.533,3.413-8.533,8.533
				S130.2,202.307,135.32,202.307z"/>
			<path d="M49.987,91.373c5.12,0,8.533-3.413,8.533-8.533s-3.413-8.533-8.533-8.533s-8.533,3.413-8.533,8.533
				S44.867,91.373,49.987,91.373z"/>
		</g>
	</g>
</g>
</svg>